# xmcd
#
# Track frame offsets: 
#        150
#        16864
#        41594
#        57674
#        81726
#        99146
#        117156
#        131294
#        147343
#        166567
#
# Disc length: 2463 seconds
#
# Revision: 0
# Processed by: cddbd v1.5.2PL0 Copyright (c) Steve Scherf et al.
# Submitted via: ExactAudioCopyFreeDBPlugin 1.0
#
DISCID=7b099d0a
DTITLE=Los De Abajo - Mariachi Beat
DYEAR=2014
DGENRE=Blues
TTITLE0=Turn Off
TTITLE1=Down Town
TTITLE2=Ya Me Voy
TTITLE3=Me Dejo
TTITLE4=Mexican Underdogs
TTITLE5=Mexicano
TTITLE6=Cicatrices
TTITLE7=Tono Y Regina
TTITLE8=La Flor De Tus Labios
TTITLE9=Mujer Guerrera
EXTD=
EXTT0=
EXTT1=
EXTT2=
EXTT3=
EXTT4=
EXTT5=
EXTT6=
EXTT7=
EXTT8=
EXTT9=
PLAYORDER=
